<svg xmlns="http://www.w3.org/2000/svg" xmlns:xlink="http://www.w3.org/1999/xlink" width="500" zoomAndPan="magnify" viewBox="0 0 375 374.999991" height="500" preserveAspectRatio="xMidYMid meet" version="1.0"><defs><g/><clipPath id="779ee78e33"><path d="M 137 74 L 238 74 L 238 174 L 137 174 Z M 137 74 " clip-rule="nonzero"/></clipPath><clipPath id="062656eafc"><path d="M 137.765625 123.839844 L 187.5 74.105469 L 237.234375 123.839844 L 187.5 173.578125 Z M 137.765625 123.839844 " clip-rule="nonzero"/></clipPath><clipPath id="d51161d357"><path d="M 137.765625 123.839844 L 187.5 74.105469 L 237.234375 123.839844 L 187.5 173.578125 Z M 137.765625 123.839844 " clip-rule="nonzero"/></clipPath><clipPath id="81bece21e6"><path d="M 137.765625 123.839844 L 187.5 74.105469 L 237.234375 123.839844 L 187.5 173.578125 Z M 137.765625 123.839844 " clip-rule="nonzero"/></clipPath></defs><g fill="#ffffff" fill-opacity="1"><g transform="translate(61.915016, 227.311955)"><g><path d="M 18.886719 0 L 26.992188 0 L 26.992188 -34.976562 L 45.527344 -34.976562 L 45.527344 -41.332031 L 0.351562 -41.332031 L 0.351562 -34.976562 L 18.886719 -34.976562 Z M 18.886719 0 "/></g></g></g><g fill="#ffffff" fill-opacity="1"><g transform="translate(107.786221, 227.311955)"><g><path d="M 0.234375 0 L 8.6875 0 L 13.40625 -9.035156 L 39.292969 -9.035156 L 44.011719 0 L 52.523438 0 L 31.1875 -41.332031 L 21.746094 -41.332031 Z M 15.796875 -14.691406 L 26.351562 -35.445312 L 26.464844 -35.445312 L 36.960938 -14.691406 Z M 15.796875 -14.691406 "/></g></g></g><g fill="#ffffff" fill-opacity="1"><g transform="translate(160.535196, 227.311955)"><g><path d="M 0.234375 0 L 9.5625 0 L 25.535156 -17.253906 L 41.738281 0 L 51.183594 0 L 30.605469 -21.511719 L 50.71875 -41.332031 L 41.332031 -41.332031 L 25.476562 -25.59375 L 10.027344 -41.332031 L 0.699219 -41.332031 L 20.402344 -21.453125 Z M 0.234375 0 "/></g></g></g><g fill="#ffffff" fill-opacity="1"><g transform="translate(211.943588, 227.311955)"><g><path d="M 2.914062 0 L 44.597656 0 L 44.597656 -5.886719 L 10.785156 -5.886719 L 10.785156 -18.539062 L 41.683594 -18.539062 L 41.683594 -23.960938 L 10.785156 -23.960938 L 10.785156 -35.386719 L 44.011719 -35.386719 L 44.011719 -41.332031 L 2.914062 -41.332031 Z M 2.914062 0 "/></g></g></g><g fill="#ffffff" fill-opacity="1"><g transform="translate(257.698224, 227.311955)"><g><path d="M 2.914062 0 L 28.855469 0 C 44.480469 0 53.167969 -7.402344 53.167969 -20.636719 C 53.167969 -33.929688 44.480469 -41.332031 28.855469 -41.332031 L 2.914062 -41.332031 Z M 10.902344 -6.121094 L 10.902344 -35.09375 L 28.15625 -35.09375 C 39.117188 -35.09375 45.238281 -29.964844 45.238281 -20.636719 C 45.238281 -11.308594 39.117188 -6.121094 28.15625 -6.121094 Z M 10.902344 -6.121094 "/></g></g></g><g clip-path="url(#779ee78e33)"><g clip-path="url(#062656eafc)"><g clip-path="url(#d51161d357)"><g clip-path="url(#81bece21e6)"><path stroke-linecap="butt" transform="matrix(0.331575, -0.331575, 0.331575, 0.331575, 137.763701, 123.840213)" fill="none" stroke-linejoin="miter" d="M 0.00345753 0.00234491 L 149.997661 0.00234491 L 149.997661 149.996548 L -0.00243291 150.002438 L 0.00345753 0.00234491 " stroke="#ffffff" stroke-width="38.386219" stroke-opacity="1" stroke-miterlimit="4"/></g></g></g></g><path stroke-linecap="butt" transform="matrix(0.329289, 0.329289, -0.331575, 0.331575, 174.153288, 89.745191)" fill="none" stroke-linejoin="miter" d="M -0.0000632738 8.496803 L 54.384466 8.502694 " stroke="#ffffff" stroke-width="17" stroke-opacity="1" stroke-miterlimit="4"/><path stroke-linecap="butt" transform="matrix(0.329289, 0.329289, -0.331575, 0.331575, 185.987702, 131.926163)" fill="none" stroke-linejoin="miter" d="M 0.000300764 8.50435 L 54.38483 8.498459 " stroke="#ffffff" stroke-width="17" stroke-opacity="1" stroke-miterlimit="4"/></svg>